<svg id="a2fd9e34-4753-4c83-9dd6-dcac0cd5f58f" data-name="Layer 1" xmlns="http://www.w3.org/2000/svg" xmlns:xlink="http://www.w3.org/1999/xlink" width="865.76" height="682.89" viewBox="0 0 865.76 682.89"><defs><linearGradient id="bcb1e8f8-b74b-4d78-aa84-b76dcc4e4175" x1="-1368.04" y1="1700.59" x2="-1392.58" y2="1539.16" gradientTransform="translate(1095.71 -1652.8) rotate(-16.56)" gradientUnits="userSpaceOnUse"><stop offset="0" stop-color="#ffb7a7"/><stop offset="1" stop-color="#ff9595"/></linearGradient></defs><path d="M683.53,161.82s-11.92-7.81-10.25-25.67,11.36-26.23,24.39-32.08,24-4.95,28.68-.21c0,0,11.37-7.47,24.12,4.81,6.27,6,13.3,17.32,14.81,27.94,2,14.37-.67,28.14-11.07,31.49,0,0-.62,19-25.77,22.74C718.56,192.29,683.53,161.82,683.53,161.82Z" fill="#45454f"/><path d="M831.49,382.27l-7.85-11.22c-1.31-1.49-8.4-8.65-9.27-9.53-12.06-19.34-19.61-36.82-27.67-55l-20.83,10.13c9.59,21.14,29,44.61,37.31,54.14l4.39,5.83s5.17,16.94,8.22,20.75,9.07,4.9,17,.63S831.49,382.27,831.49,382.27Z" fill="#f9b499"/><path d="M702.26,588.35c2,8.59,5.52,15.15,2.74,22.45-3,7.81-28.34,10.6-28.54,15.2-.27,5.85,24.26,1.67,34.29,1.67s11.1,1.41,12.59-1.46c2.18-4.21.31-9.57-3.82-20.32-1.75-4.55-3.14-10.91-3.38-20.21Z" fill="#f9b499"/><path d="M725.86,626.52H700.48a1.84,1.84,0,0,0-1.83,1.88,1.94,1.94,0,0,0,1.93,1.88H726a1.82,1.82,0,0,0,1.83-1.88A1.94,1.94,0,0,0,725.86,626.52Z" fill="#446488"/><path d="M673.56,627.15c-.18-7,14.5-8.61,24.54-13.78,2-.32,9.07,5.32,9.37,16.91H678.66C673.33,630.28,673.56,627.15,673.56,627.15Z" fill="#446488"/><path d="M734.36,586c.65,8.77,3,15.77-.87,22.5-4.19,7.2-29,11.95-29.21,16.55-.26,5.84,24.27,1.67,34.29,1.67s11.1,1.41,12.59-1.46c2.19-4.21-.11-8-2.49-19.28-1-4.74-1.37-11.22-.12-20.4Z" fill="#f9b499"/><path d="M682,218.45c-10.13,5.63-14.63,18.51-23.92,34s-13.51,18.3-19.14,25.61-10.41,36.17,8,32.09c22.1-4.9,35-27,36.73-31.81S682,218.45,682,218.45Z" fill="#446488"/><path d="M666.83,345.6s-10,47.84-.27,117.64c8.41,60.28,36.25,138.67,36.25,138.67a27.62,27.62,0,0,0,17.4-4.43s-1.36-46-4.65-64S707,502.5,705,492.37,715.08,414,715.08,414s1.08,51.78,3.62,83.86C720.93,526,728.93,576.09,731.76,598a17.45,17.45,0,0,0,19.14,0s4.28-40.52,4.82-62.47-2-34.34-4.18-51.79,15.45-70.64,18.16-96C772,366,764.42,341.5,765.88,345Z" fill="#45454f"/><path d="M753.56,155.92s-20.76.21-34.28-9.19c-13.92-9.67-17.79-28-17.79-28s-13.77,1.88-19.87,13c-9.89,18,5.27,36.36,5.27,36.36l55.17,3.17,1.9-9.79A16.72,16.72,0,0,0,753.56,155.92Z" fill="#45454f"/><path d="M734.56,178.38s-24.79,7.86-30,16.5c10.66,8.59-3.41,17.32-11.85,19.85,0,0-.12,19.89,19.7,20.69s31.52-21.25,31.52-21.25c-8.44-2-14.25-7.22-15.87-13C725.52,192,730.68,184.75,734.56,178.38Z" fill="#f9b499"/><path d="M756.58,218.11c13.23,5.06,18.3,57.41,34.76,91.18,0,0-6.33,11.4-24.91,15.2,0,0-15.19-22.8-20.26-50.24C741.78,250.48,756.58,218.11,756.58,218.11Z" fill="#446488"/><path d="M769.63,359.11c-4.07-28.71-20.08-50.24-20.37-63.33-.33-15.19,4.4-21.29,7.89-40.1,2.11-11.4,8.15-33-.57-37.57-10.13-5.35-13.1-4.65-13.1-4.65s-12.08,19-31.08,18.58-18.58-18.23-18.58-18.23A65.49,65.49,0,0,0,682,218.45s-10.07,24.89-9.71,38.5,12,31.12,12.25,38.83c.42,16.05-11,14.92-20.69,63.33C678.72,373.46,754.3,368.82,769.63,359.11Z" fill="#446488"/><path d="M727.23,104.63c-5-8.68-13.34-9.79-22.29-6.58-9.23,3.3-21.29,10.64-24.43,20.38-.21.64.84,1.1,1.11.47,3.3-7.6,10-12.15,17-16.14,9.81-5.58,20-7.72,27.66,2.41C726.72,105.7,727.58,105.25,727.23,104.63Z" fill="#45454f"/><path d="M753.68,625.53H728.31a1.82,1.82,0,0,0-1.83,1.88,1.93,1.93,0,0,0,1.93,1.88h25.37a1.82,1.82,0,0,0,1.83-1.88A1.94,1.94,0,0,0,753.68,625.53Z" fill="#446488"/><path d="M701.39,626.16c-.19-7,14.49-8.62,24.53-13.79,2-.31,9.07,5.33,9.38,16.92H706.48C701.16,629.29,701.39,626.16,701.39,626.16Z" fill="#446488"/><path d="M793.07,388.46l4.7-15.95a2,2,0,0,1,2.54-1.39l35,10.19a2,2,0,0,1,1.39,2.54L832,399.8a2,2,0,0,1-2.54,1.39l-35-10.19A2,2,0,0,1,793.07,388.46Z" fill="#e4e4e4"/><path d="M794,388.25l4.44-15.08a1.71,1.71,0,0,1,2.12-1.16l34.16,9.93a1.71,1.71,0,0,1,1.16,2.12l-4.44,15.08a1.71,1.71,0,0,1-2.12,1.16l-34.16-9.93A1.71,1.71,0,0,1,794,388.25Z" fill="#fff"/><polygon points="797.2 390.23 802.2 373.25 832.6 382.08 827.6 399.06 797.2 390.23" fill="#45454f"/><path d="M831.5,392.05a.9.9,0,1,1,1.12-.6A.9.9,0,0,1,831.5,392.05Z" fill="#45454f"/><path d="M746.88,214a8.12,8.12,0,0,0-3.4-.49s-12.08,19-31.08,18.58-18.58-18.23-18.58-18.23-1.92.53-4.48,1.45c.64,4.48,3.7,18.52,17.15,21l3.38,10.55,4.64-10.55S738,234.24,746.88,214Z" fill="#45454f"/><path d="M651.18,305.07c3.43-6,3.11-17.49-8.65-31.24a56.42,56.42,0,0,1,4,6.1c-6.53-9.71-11.39-15.12-18-28.05-6.75-13.23-14.35-31.8-20.83-37.15l-4.64,16c3.74,6.82,7.22,28.41,12.86,45.85a89.36,89.36,0,0,0,5.29,13.25c9,17.45,18.9,23.15,26.46,18.86a7.57,7.57,0,0,0,1-.71A9,9,0,0,0,651.18,305.07Z" fill="#f9b499"/><rect x="609.39" y="614.34" width="64.17" height="10.51" fill="#45454f"/><rect x="25.14" y="614.34" width="325.9" height="10.51" fill="#45454f"/><path d="M350.39,24.76H610.67a3.58,3.58,0,0,1,3.58,3.58V624.85a0,0,0,0,1,0,0H346.81a0,0,0,0,1,0,0V28.34A3.58,3.58,0,0,1,350.39,24.76Z" fill="#45454f"/><path d="M360.71,37.44H600.78A2.25,2.25,0,0,1,603,39.69V624.18a0,0,0,0,1,0,0H358.45a0,0,0,0,1,0,0V39.69A2.25,2.25,0,0,1,360.71,37.44Z" fill="#e4e4e4"/><rect x="390.46" y="76.06" width="180.58" height="252.54" fill="#3f3d56"/><rect x="390.46" y="76.06" width="180.58" height="252.54" opacity="0.2"/><path d="M430.74,217.28c-1.57-47-1.5-94.28-4.49-141.22H424c-.17,44.76,2.59,89.65,3.78,134.39,1,38.92,7.67,79.2,4.19,118.15h3.53C439.91,292.31,431.93,253.32,430.74,217.28Z" fill="#45454f"/><path d="M437.15,76.06c2,84,4.33,168.83,10.78,252.54h2.14c-1.13-84-5.57-168.52-9.53-252.54Z" fill="#45454f"/><path d="M473.63,76.06H470.7c-1.66,41.31.07,83,.66,124.29.61,42.68.59,85.59,2.79,128.25h3.45c-.26-42.74-2.18-85.52-2.8-128.25C474.19,159,475.34,117.39,473.63,76.06Z" fill="#45454f"/><path d="M503.53,76.06H500a2074.53,2074.53,0,0,0,6.24,252.54h2.24A2353.87,2353.87,0,0,1,503.53,76.06Z" fill="#45454f"/><path d="M522.17,76.06H520c-1.3,42.33,4.59,84.65,7.53,126.79s1.69,83.72-.33,125.75h3.39C538.56,244.2,524.15,160.36,522.17,76.06Z" fill="#45454f"/><path d="M556,202.86c-3.22-42.23-5.21-84.58-8.41-126.8h-2.79c.38,42.27,5.55,84.7,8.5,126.8s3.27,83.78,4.6,125.74h3.38C563.43,287,559.11,244.19,556,202.86Z" fill="#45454f"/><path d="M409.38,197.07c-.51-40.63-5.67-80.63-8.68-121H397c.77,17,3.74,34,5.36,50.9,2.24,23.31,3.36,46.71,3.76,70.11.76,43.92-2.46,87.66-3.09,131.53h2.71C409.24,285,409.94,240.75,409.38,197.07Z" fill="#45454f"/><rect x="390.46" y="395.62" width="180.58" height="203.9" fill="#45454f"/><rect x="390.46" y="395.62" width="180.58" height="203.9" opacity="0.2"/><path d="M525.21,395.62h-3.76c1,25.71,5,51.86,5.86,76.62,1.41,42.36,1.49,84.92,3.69,127.27h3c-.35-40.13-2.68-80.35-3.75-120.44C529.51,451.62,526,423.48,525.21,395.62Z" fill="#45454f"/><path d="M508.62,395.62c1.59,67.91,5,136,8.22,203.89h3.73c-1.65-67.86-3.66-136.14-8-203.89Z" fill="#45454f"/><path d="M486.69,489.17c-.45-31.12-.56-62.37-1.44-93.55H481c.69,31.18,1.84,62.38,2.29,93.55.53,36.69-.31,73.6.69,110.34h3.84C488.64,562.78,487.21,525.8,486.69,489.17Z" fill="#45454f"/><path d="M454.54,395.62h-2.69q5.92,101.83,3.12,203.89h3.54Q461.45,497.5,454.54,395.62Z" fill="#45454f"/><path d="M429.45,395.62h-4.08c-2,68.05,7.45,135.84,10.07,203.89h2.81c-.14-37.67-5.09-75.33-7.71-112.84C428.41,456.17,428.48,425.93,429.45,395.62Z" fill="#45454f"/><path d="M401.14,395.62h-4.82c.59,30.45,3.49,61.12,5.76,91,2.87,37.58,4.77,75.25,7.4,112.85H413c-1.2-37.65-5.59-75.38-8.21-112.85C402.66,456.26,401.9,426,401.14,395.62Z" fill="#45454f"/><path d="M551.89,492.45c-.55-32.34,1-64.57,2.18-96.83h-4c-1.55,32.26-1.82,64.7-1.42,96.83.46,35.95,4.55,71.4,7.57,107.06H560c-1.25-12.34-3.13-24.66-4.31-37C553.42,539.26,552.29,515.85,551.89,492.45Z" fill="#45454f"/><path d="M390.46,76.06V328.6H571V76.06Zm173.71,244.8H397.31v-237H564.17Z" fill="#45454f"/><path d="M390.46,395.62V599.35H571V395.62ZM564.17,591.91H397.31V403.06H564.17Z" fill="#45454f"/><path d="M598.86,37.44H362.63a4.26,4.26,0,0,0-4.18,4.34v582.4h5.72V47.62a4.16,4.16,0,0,1,4.08-4.24h225a4.17,4.17,0,0,1,4.08,4.24V624.18H603V41.78A4.26,4.26,0,0,0,598.86,37.44Z" fill="#d1d3d4"/><path d="M662.58,645.86c0,6.78-81.5,12.27-182.05,12.27s-182-5.49-182-12.27,81.5-12.28,182-12.28S662.58,639.08,662.58,645.86Z" fill="#e1e1e1"/><ellipse cx="480.53" cy="643.78" rx="177.1" ry="9.51" fill="#e4e4e4"/><path d="M222,268.56s21.05,26,33.76,39.54,40.27,41.64,40.27,41.64l-19.36,5.76s-26.87-12.26-46.11-29.67c-20.36-18.44-35.31-40.95-35.31-40.95Z" fill="url(#bcb1e8f8-b74b-4d78-aa84-b76dcc4e4175)"/><path d="M239.89,325.13a178.59,178.59,0,0,1-28.59-33.65,57.63,57.63,0,0,0,17-15.17c-4.21-5.09-6.23-7.75-6.23-7.75l-26.75,16.32s15,22.51,35.31,40.95c19.24,17.41,46.11,29.67,46.11,29.67l3.57-1.06C272.79,349.82,253.7,337.62,239.89,325.13Z" fill="#d27a84"/><path d="M185.66,282.65s41-14.5,35.57-25.07c-8.51-9.27-21.14-39.77-32-47.17-7.19-5.62-26.16,21.45-21.35,41C171.81,267.44,185.66,282.65,185.66,282.65Z" fill="#446488"/><path d="M183.58,283.94c11.34-5.68,30.37-18.18,38.65-28.21l9.59,11.4c-7.3,8.81-23.45,22.14-39.14,28.67Z" fill="#e7dee8"/><path d="M178.34,186.52c-3.2,7.26-4.15,16.11-4,16.92,0,0-5.48,7.76-23.52,7-11-4.56-20.86-14.35-20.86-14.35,3.47-1.25,12.15-3.17,17.9-14.49,4.88-9.6,4.52-26.48,4.52-26.48l11.44,4.45Z" fill="#f9b499"/><path d="M151.8,613.86c2.91,10.38-4.32,17.93-1.9,25.48,2.8,8.69,63.14,6.64,63.95,1.21,1.63-10.87-34.06-12.22-38.74-20.77a18.62,18.62,0,0,1-2-12Z" fill="#446488"/><path d="M34.6,608c1.63,10.66-6.47,17.28-5,25.06,1.72,9,61.87,14.25,63.34,9,2.93-10.59-32.34-16.26-35.95-25.32a18.71,18.71,0,0,1-.48-12.1Z" fill="#446488"/><path d="M135,189.3s-23.42,5.26-30.14,8c-20.24,8.29-26.77,32.69-39.41,68-11.63,32.5-17,58.26-12.06,66.85,5.37,9.39,84.39,25.52,106.17,6.79,11.33-9.74,16.29-35.53,22.66-52.29s21.34-54,13.79-68.27c-4.66-8.77-15.73-16.18-15.73-16.18l-17.36,4.06Z" fill="#446488"/><path d="M130.51,342.1l-2.22-.83c3.76-10.07,8.21-23.66,13.25-40.39l2.27.68C138.75,318.34,134.28,332,130.51,342.1Z" fill="#45454f"/><path d="M179.88,201.9l-16.61,3.48L136.13,189l-2.19.65,14.9,33.65,8-7.34,2.38,3.5a186,186,0,0,1-5.57,39c-.14.52-14,52.36-25.35,82.81l2.22.83c11.38-30.56,25.27-82.51,25.41-83a188.34,188.34,0,0,0,5.68-40.65l2.69-2.18,4.23,10.21,12.31-23.92Z" opacity="0.2"/><polygon points="146.4 180.74 163.27 205.38 150.12 217.5 135.28 187.42 146.4 180.74" fill="#e4e4e4"/><path d="M158.14,346.31s23.66,96.41,27.57,128.12,2.4,73.27,3.63,89.55,1,30.84-.17,38.3-9.35,15.42-20.35,17.85-20.79-2.21-24-11.27-3.42-91.21-5.25-109-29.1-86.13-29.1-86.13l1.93-63.37Z" fill="#45454f"/><path d="M51.08,343.73a472,472,0,0,0-3,48.8c-.43,29.62,6.11,79.24,3.78,96.55S26,585.39,26.5,597.18s4,19.78,11.22,22.53,22.72,3.76,30.33-10.38C73.23,599.71,94.89,520.57,101,493c2.34-10.61,16.45-92.31,16.45-92.31l8.49-4.76L124,350.76Z" fill="#45454f"/><path d="M159.7,349.18c-33.44,8.33-74.14,5.69-108.62-5.45l2.32-11.58c35.14,11.09,74.76,14,106.91,5.76Z" fill="#f2f2f2"/><rect x="94.1" y="340.15" width="10.3" height="17.69" rx="1.36" transform="translate(30.2 -7.21) rotate(4.9)" fill="#45454f"/><rect x="144.52" y="339.31" width="10.3" height="17" rx="1.26" transform="translate(-34.97 17.23) rotate(-5.9)" fill="#45454f"/><rect x="61.33" y="335.22" width="10.3" height="16.79" rx="1.44" transform="translate(77.02 -6.21) rotate(12.68)" fill="#45454f"/><polygon points="191.53 267.44 172 264.85 174.75 253.87 194.27 256.46 191.53 267.44" fill="#e4e4e4"/><path d="M270.25,380.12l50,.17a3.54,3.54,0,0,0,3.65-3.41l.5-106.46a3.53,3.53,0,0,0-3.62-3.45l-50-.17a3.54,3.54,0,0,0-3.65,3.41l-.5,106.46A3.53,3.53,0,0,0,270.25,380.12Z" fill="#bcbec0"/><path d="M275.76,380.14l-89.41-.33a3.46,3.46,0,0,1-3.56-3.39l.49-106.56a3.48,3.48,0,0,1,3.59-3.37l89.41.33a3.47,3.47,0,0,1,3.57,3.39l-.49,106.56A3.49,3.49,0,0,1,275.76,380.14Z" fill="#d1d3d4"/><path d="M272.11,274.23l-3.34,4.52c-2.18,2.83-5.18,7-9,11.76s-8.15,10.47-13,16.42-10,12.26-15.17,18.55-10.49,12.51-15.49,18.3-9.76,11.11-13.79,15.72-7.55,8.32-9.94,11l-3.84,4.1,3.34-4.52c2.17-2.83,5.18-7,9-11.76s8.15-10.47,13-16.42,10-12.25,15.18-18.55,10.49-12.5,15.49-18.29,9.76-11.12,13.79-15.73,7.55-8.31,9.94-11Z" fill="#bcbec0"/><path d="M188.06,271.05l4,4.26c2.48,2.76,6.13,6.61,10.33,11.39S211.56,297,216.71,303l16.14,19,15.8,19.24c5.06,6.13,9.57,12,13.54,17s7.11,9.25,9.38,12.18l3.49,4.68-4-4.26c-2.49-2.76-6.14-6.61-10.34-11.39s-9.18-10.26-14.32-16.32l-16.15-19-15.8-19.24c-5.05-6.13-9.56-12-13.54-17s-7.1-9.25-9.38-12.18Z" fill="#bcbec0"/><path d="M320.7,274.23l-1.24,4.42c-.86,2.79-1.95,6.82-3.5,11.58s-3.25,10.34-5.27,16.25-4.2,12.21-6.42,18.49-4.56,12.53-6.81,18.36-4.45,11.23-6.28,15.89-3.55,8.45-4.66,11.15l-1.86,4.2,1.24-4.42c.85-2.79,2-6.82,3.5-11.58s3.25-10.34,5.26-16.25,4.21-12.21,6.43-18.49,4.57-12.52,6.81-18.35,4.45-11.24,6.28-15.89,3.55-8.46,4.67-11.16Z" fill="#d1d3d4"/><path d="M284.43,271.05l1.92,4.36c1.15,2.8,2.93,6.75,4.84,11.57s4.21,10.42,6.51,16.48,4.71,12.54,7.09,19,4.64,13,6.7,19.16,3.89,11.92,5.51,16.84,2.77,9.11,3.67,12,1.3,4.58,1.3,4.58-.69-1.59-1.92-4.36-2.93-6.75-4.84-11.57-4.22-10.42-6.51-16.48-4.71-12.54-7.09-19-4.63-13-6.7-19.16-3.89-11.92-5.51-16.84-2.77-9.11-3.67-12S284.43,271.05,284.43,271.05Z" fill="#d1d3d4"/><polygon points="311.66 281.07 292.91 281.07 292.97 266.82 311.72 266.9 311.66 281.07" fill="#d1d3d4"/><rect x="233.23" y="275.09" width="39.72" height="24.11" fill="#e6e7e8"/><rect x="233.24" y="275.09" width="38.41" height="22.97" fill="#f8f7f5"/><rect x="235.05" y="278.51" width="2.72" height="16.12" fill="#d1d3d4"/><rect x="245.14" y="278.51" width="2.72" height="16.12" fill="#d1d3d4"/><rect x="242.12" y="278.51" width="2.04" height="16.12" fill="#d1d3d4"/><rect x="239.09" y="278.51" width="1.36" height="16.12" fill="#d1d3d4"/><rect x="249.46" y="278.51" width="0.82" height="16.12" fill="#d1d3d4"/><rect x="251.87" y="278.51" width="2.72" height="16.12" fill="#d1d3d4"/><rect x="257.2" y="278.51" width="12.63" height="2.03" fill="#d1d3d4"/><rect x="257.2" y="281.41" width="12.63" height="2.03" fill="#d1d3d4"/><rect x="257.2" y="285.92" width="12.63" height="0.73" fill="#d1d3d4"/><rect x="257.2" y="288.58" width="12.63" height="0.73" fill="#d1d3d4"/><rect x="257.2" y="291.24" width="12.63" height="0.73" fill="#d1d3d4"/><rect x="257.2" y="293.9" width="12.63" height="0.73" fill="#d1d3d4"/><path d="M98.28,270.53l39.5-19.59c-5.9-9.86-17.58-56.2-39.82-47.81S84.63,248.17,98.28,270.53Z" fill="#446488"/><path d="M127.22,340c-5.35,0-9.69,4-9.69,9s4.34,9,9.69,9,9.69-4,9.69-9S132.58,340,127.22,340Zm0,14.12a5.16,5.16,0,1,1,5.56-5.14A5.35,5.35,0,0,1,127.22,354.1Z" fill="#45454f"/><path d="M217.38,325.06s17.62-1.79,22.31-.45,8,6.47,7.14,15.4-15,4.9-15,4.9L218.49,342c-.91-.3-3.59-1.35-6.23-2.4-5.38-.38-39.15-3.39-66.63-20.57-25.56-16-38.63-41.25-38.63-41.25l31.66-14.52c3.77,9.3,16,25,28.17,34.57C166.83,297.84,196.11,319.09,217.38,325.06Z" fill="#f9b499"/><path d="M95.67,270.82c15.86-8.65,31.36-15.71,43.68-21.14l6.86,13.3c-9.5,7.57-25.56,15-43.57,21.2Z" fill="#e4e4e4"/><path d="M175.83,194.61l1.53-5.64s-14.64-10-20.12-20.32C157.24,168.65,155.65,181.65,175.83,194.61Z" fill="#f4a48e"/><path d="M152.41,95.59c49.86-38.11,67.67,33.59,67.67,33.59s1.13,9.08-8.81,11.78c-4,1.07-28.52,10.6-28.52,10.6L155.8,169.62s-15.4-5-18.3-30.53C134.83,115.59,141.59,95.06,152.41,95.59Z" fill="#45454f"/><path d="M156,137.53c1.7,2.06,1.15,7.06,4.51,7.4,4.14.43,3.15-14.43,11.15-25.18,3.18-4.27,11.32-11,24.27-7.57,16.16,4.27,17.84,13.56,18,22.59,0,4.22-.6,13-6.57,27.86-7.11,17.73-17,27.71-24.6,28.17a17.56,17.56,0,0,1-12.81-4.23c-6.38-5.19-13.45-13.63-15.31-30.07-8.42-1.5-11.09-8.37-9.74-13.71C146.18,137.28,151.07,133.16,156,137.53Z" fill="#f9b499"/><path d="M137.57,119.35s-4.79,7.84-3.71,14.92l2.42-3.22,4.88-1.46Z" fill="#45454f"/><path d="M236.84,138.24a.45.45,0,0,0,0-.11,1.32,1.32,0,0,0-.12-.44v0a3.22,3.22,0,0,0-.27-.46s0,0,0-.06h0c-2.54-3.78-15.06-10.79-15.06-10.79l0-.08v-.06s0-.12,0-.21l0-.09c0-.1,0-.21-.06-.34l0-.15c0-.15-.07-.31-.1-.49l0-.12c-.08-.39-.17-.84-.29-1.35h0v0l-.06-.26c0-.07,0-.14,0-.21-.06-.23-.11-.47-.17-.72,0-.06,0-.12,0-.18s0-.13,0-.19c-.06-.27-.12-.53-.19-.81l-.06-.23h0c0-.07,0-.13,0-.19l0-.12c-.12-.48-.26-1-.39-1.52,0-.12-.07-.25-.1-.38-.15-.53-.3-1.08-.46-1.66l-.06-.2c-.15-.52-.3-1.06-.47-1.61l-.12-.4c-.18-.6-.37-1.2-.57-1.82l-.12-.37c-.18-.56-.38-1.13-.57-1.7l-.12-.32c-.22-.63-.45-1.27-.7-1.91-.05-.15-.11-.3-.17-.45-.24-.63-.49-1.27-.75-1.9a.36.36,0,0,1,0-.09c-.27-.64-.55-1.29-.84-1.93-.07-.15-.14-.29-.2-.44-.3-.64-.6-1.27-.91-1.88,0-.09-.09-.16-.13-.24-.28-.57-.58-1.12-.89-1.66-.07-.13-.13-.25-.21-.38-.33-.58-.68-1.15-1-1.71L211,97.6c-.33-.5-.66-1-1-1.46l-.17-.24c-.38-.51-.78-1-1.18-1.47l-.28-.32c-.41-.47-.84-.92-1.28-1.34s-.73-.66-1.13-1l-.41-.3c-.27-.21-.55-.43-.85-.63l-.54-.35-.84-.54-.64-.36-.87-.48-.7-.34-.91-.44-.76-.33-1-.4-.8-.3-1-.37-.85-.28-1-.33-.89-.25-1.09-.29-.91-.22-1.13-.26-.94-.19-1.17-.21-1-.16-1.19-.18-1-.12-1.22-.13-1-.09L182,84.15l-1-.05-1.27,0h-1c-.42,0-.85,0-1.28,0-.2,0-.41,0-.61,0H177c-11.66.27-23.74,3.94-31.54,12.78-5.56,6.3-7.94,14.54-8.84,21.94,5.28,3.4,7,10.15,7,10.15l-7.39,2.12a58.37,58.37,0,0,0,.63,6.16,330.42,330.42,0,0,1,41.48-10.06c3.67,2.43,15.22,9.88,21.49,11.56,14.59,3.89,33.78,2.73,36.66.24a.84.84,0,0,0,.23-.31.45.45,0,0,0,0-.11A.88.88,0,0,0,236.84,138.24Z" fill="#446488"/><polygon points="163.27 205.38 170.07 221.14 180.87 201.13 176.26 192.43 163.27 205.38" fill="#e4e4e4"/><path d="M706.67,206a6.35,6.35,0,0,0,1.7-4.92,38.66,38.66,0,0,0,20.07-10.24A30,30,0,0,1,706.67,206Z" fill="#f4a48e"/><path d="M762.88,108.74c1.94-2.57,4.61-3,7.53-3.42.47-.08.38-.74,0-.86-3.22-1.08-6.52,1.35-8.12,3.93C762.05,108.78,762.62,109.08,762.88,108.74Z" fill="#45454f"/><path d="M762.32,108.82c9-2.33,17.55,1.81,19.72,11.4,1.94,8.59-1.12,18.65-10.78,20.1-.6.09-.43,1,.14,1,10.61.25,13.93-13.08,11.89-21.47-2.17-9-12.17-16.64-21.26-11.76A.39.39,0,0,0,762.32,108.82Z" fill="#45454f"/><path d="M751.17,110.2s0-5.3,5.26-6.41,7.21,4.18,7.21,4.18,7.21-2,13.86,10.32-.83,24.28-6.93,26.79-13.31-2-13.31-2Z" fill="#45454f"/><path d="M750.91,171.07c19.29,5.72,17.93-29.69,12.56-39.06-.33-.57-1.36-.19-1.11.47,4.48,11.55,7.73,38.22-11.35,37.89A.36.36,0,0,0,750.91,171.07Z" fill="#45454f"/><path d="M679,153.59c2.32,5.57,4.73,10.38,3.66,16.61-.76,4.47-3.86,7.91-4.23,12.64s1.13,9.18,5.08,12c.59.41,1.2-.47.74-1-8.69-9.09-.21-16.42.39-26,.31-5-2.4-10.37-4.93-14.51C679.51,152.94,678.84,153.17,679,153.59Z" fill="#45454f"/><path d="M744.36,160.13,732.49,159l-10.34,30.58a11.94,11.94,0,0,0,5.87,1.22C752.35,186.94,755.53,160.41,744.36,160.13Z" fill="#45454f"/><path d="M742.36,161.39c-3.55-.39-6.2,6.56-6.2,6.56-5.76,1.23-3.74-11.82-3.74-11.82-28.36-9.7-32.8-30.26-32.8-30.26C686,128.19,684,143.61,684,143.61c-8.46,40.29,11.91,56.94,18.63,57.95s21.73-4.88,31.94-21.79c5.65,1.35,10.89-2,13-7C749.61,168,748.56,161.8,742.36,161.39Z" fill="#f9b499"/></svg>